<?xml version="1.0" encoding="UTF-8"?>
<svg xmlns="http://www.w3.org/2000/svg"
     width="1500" height="550"
     viewBox="0 0 1800 700">

  <!-- 葉っぱ部分 -->
  <g fill="#0a1a2f">
    <path d="M361.5,23.5 C391.695,70.7599 412.695,121.76 424.5,176.5
             C438.79,253.388 430.29,327.722 399,399.5
             C380.564,433.108 357.73,463.442 330.5,490.5
             C295.393,521.571 256.393,546.904 213.5,566.5
             C212.341,564.623 210.674,564.123 208.5,565
             C191.189,572.325 174.189,580.158 157.5,588.5
             C152.451,615.011 148.284,641.678 145,668.5
             C141.589,675.663 135.922,678.996 128,678.5
             C125.502,676.583 122.835,674.916 120,673.5
             C119.228,670.791 118.061,668.291 116.5,666
             C118.094,654.512 119.594,643.012 121,631.5
             C123.253,622.479 125.586,613.479 128,604.5
             C128.7,595.848 128.2,587.515 126.5,579.5
             C145.983,478.887 180.816,383.887 231,294.5
             C257.843,245.808 289.843,200.808 327,159.5
             C329.599,154.441 330.599,149.108 330,143.5
             C325.034,135.884 318.2,133.384 309.5,136
             C240.811,214.135 187.978,302.301 151,400.5
             C134.729,446.814 119.562,493.481 105.5,540.5
             C88.5637,496.082 79.5637,450.082 78.5,402.5
             C78.409,360.403 83.409,319.236 93.5,279
             C93.3552,278.228 93.0219,277.561 92.5,277
             C98.0804,261.111 104.747,245.611 112.5,230.5
             C111.167,230.5 109.833,230.5 108.5,230.5
             C149.353,155.648 206.687,96.981 280.5,54.5
             C305.144,41.3368 330.644,30.0035 357,20.5
             C358.643,21.3146 360.143,22.3146 361.5,23.5 Z"/>
  </g>
  <g fill="#0a1a2f">
    <path d="M361.5,23.5 C363.783,23.6079 365.783,24.4412 367.5,26
             C396.977,72.1339 415.977,122.301 424.5,176.5
             C412.695,121.76 391.695,70.7599 361.5,23.5 Z"/>
  </g>
  <g fill="#0a1a2f">
    <path d="M108.5,230.5 C109.833,230.5 111.167,230.5 112.5,230.5
             C104.747,245.611 98.0804,261.111 92.5,277
             C93.0219,277.561 93.3552,278.228 93.5,279
             C83.409,319.236 78.409,360.403 78.5,402.5
             C72.7129,342.562 82.7129,285.229 108.5,230.5 Z"/>
  </g>
  <g fill="#0a1a2f">
    <path d="M213.5,566.5 C195.682,574.321 177.849,582.321 160,590.5
             C154.83,617.688 150.497,645.022 147,672.5
             C143.731,675.883 139.897,678.383 135.5,680
             C121.616,681.23 114.616,674.897 114.5,661
             C116.98,633.467 120.98,606.301 126.5,579.5
             C128.2,587.515 128.7,595.848 128,604.5
             C125.586,613.479 123.253,622.479 121,631.5
             C119.594,643.012 118.094,654.512 116.5,666
             C118.061,668.291 119.228,670.791 120,673.5
             C122.835,674.916 125.502,676.583 128,678.5
             C135.922,678.996 141.589,675.663 145,668.5
             C148.284,641.678 152.451,615.011 157.5,588.5
             C174.189,580.158 191.189,572.325 208.5,565
             C210.674,564.123 212.341,564.623 213.5,566.5 Z"/>
  </g>

  <!-- 右側にさらに大きいテキスト -->
  <text x="480" y="420"
        font-family="Helvetica, Arial, sans-serif"
        font-size="380"
        font-weight="bold"
        fill="#0a1a2f">
    Arcveil
  </text>
  <text x="570" y="600"
        font-family="Helvetica, Arial, sans-serif"
        font-size="125"
        fill="#0a1a2f">
    Veil. Reveal. Build.
  </text>

</svg>