<?xml version="1.0" standalone="no"?>
<!DOCTYPE svg PUBLIC "-//W3C//DTD SVG 20010904//EN" "http://www.w3.org/TR/2001/REC-SVG-20010904/DTD/svg10.dtd">
<svg version="1.0" xmlns="http://www.w3.org/2000/svg"
     width="1600" height="500" viewBox="0 200 2000 500"
     preserveAspectRatio="xMidYMid meet">

  <g transform="translate(-200,970) scale(0.100000,-0.100000)" fill="#0a0f1a" stroke="none">
    <path d="M6780 8089 c-394 -125 -680 -220 -870 -291 -710 -265 -1254 -555 -1680 -894 -164 -131 -426 -390 -544 -539 -260 -329 -443 -692 -546 -1087 -88 -339 -116 -639 -107 -1163 10 -596 66 -1093 182 -1610 55 -247 69 -291 86 -288 51 7 295 62 459 105 564 145 1136 360 1580 595 151 80 420 236 420 244 0 3 -28 15 -62 25 -104 31 -255 26 -401 -15 -244 -67 -406 -31 -504 112 -49 72 -66 145 -61 257 8 166 55 250 199 360 132 100 147 114 254 239 161 186 269 251 417 251 136 0 238 -59 348 -200 106 -137 128 -158 251 -241 64 -43 135 -99 157 -123 l41 -44 80 93 c44 51 120 135 168 187 100 108 157 191 178 262 24 80 19 97 -13 45 -133 -209 -403 -251 -483 -74 -37 82 -20 274 34 385 72 146 234 204 381 137 32 -15 60 -26 62 -25 16 17 146 319 158 368 175 718 179 1697 10 2715 -42 251 -43 255 -58 254 -6 0 -67 -19 -136 -40z m-635 -887 c-11 -10 -92 -79 -179 -153 -392 -329 -798 -729 -1101 -1083 -139 -162 -139 -161 -73 -134 331 135 829 251 1168 272 95 6 76 -1 -75 -29 -439 -80 -965 -272 -1225 -446 -122 -82 -222 -182 -340 -341 -403 -539 -809 -1450 -1030 -2317 -21 -83 -20 -33 5 158 96 737 330 1385 755 2091 l87 145 7 130 c23 446 38 681 45 688 13 13 29 -153 41 -408 6 -126 12 -237 13 -245 1 -7 46 42 99 110 408 527 934 1014 1493 1385 127 84 312 195 324 195 3 0 -3 -8 -14 -18z m-75 -1802 c78 -40 139 -164 147 -300 9 -143 -27 -257 -108 -345 -58 -63 -104 -85 -176 -85 -75 1 -128 25 -180 84 -71 80 -94 185 -69 306 20 97 68 190 134 261 88 95 170 121 252 79z m-785 -19 c107 -48 179 -208 178 -391 0 -102 -15 -159 -55 -223 -85 -133 -241 -129 -368 10 -149 163 -175 396 -58 528 78 88 206 121 303 76z m-625 -573 c167 -82 266 -280 220 -443 -16 -56 -86 -137 -144 -168 -129 -67 -294 15 -376 187 -54 115 -61 230 -19 342 47 124 168 156 319 82z"/>
  </g>

  <text x="630" y="540"
        font-family="Helvetica, Arial, sans-serif"
        font-size="400"
        font-weight="bold"
        fill="#0a0f1a">
    Arcveil
  </text>

  <text x="950" y="700"
        font-family="Helvetica, Arial, sans-serif"
        font-size="100"
        fill="#0a0f1a">
    Veil. Reveal. Build.
  </text>

</svg>
